<?xml version="1.0" standalone="no"?>
<!DOCTYPE svg PUBLIC "-//W3C//DTD SVG 20010904//EN"
 "http://www.w3.org/TR/2001/REC-SVG-20010904/DTD/svg10.dtd">
<svg version="1.0" xmlns="http://www.w3.org/2000/svg"
 width="601.000000pt" height="601.000000pt" viewBox="0 0 601.000000 601.000000"
 preserveAspectRatio="xMidYMid meet">
<metadata>
Created by potrace 1.11, written by Peter Selinger 2001-2013
</metadata>
<g transform="translate(0.000000,601.000000) scale(0.100000,-0.100000)"
fill="#000000" stroke="none">
<path d="M2100 4904 c-108 -18 -121 -20 -207 -44 -353 -96 -669 -292 -971
-602 -135 -139 -267 -309 -358 -461 -16 -27 -37 -63 -48 -80 -125 -209 -276
-609 -322 -852 -2 -11 -6 -31 -9 -45 -2 -14 -7 -40 -10 -57 -3 -18 -7 -45 -9
-60 -29 -175 -36 -333 -23 -503 32 -432 257 -792 610 -975 83 -43 247 -100
317 -110 19 -2 62 -9 95 -14 62 -10 402 -7 465 4 19 3 87 15 150 25 262 43
502 119 701 222 l115 60 49 151 c321 1005 365 1126 435 1194 37 36 103 64 193
83 31 6 56 15 54 18 -3 4 -1 33 2 65 6 47 4 57 -8 58 -9 1 -305 2 -659 2
l-642 2 -5 -30 c-17 -114 -22 -107 85 -125 88 -15 121 -26 160 -55 44 -33 70
-73 70 -110 0 -69 -65 -287 -222 -740 -164 -476 -163 -472 -241 -521 -154 -99
-409 -128 -608 -70 -222 66 -361 246 -414 536 -13 73 -15 429 -2 490 3 14 8
48 11 75 3 28 8 61 11 75 21 127 30 171 57 280 81 338 186 627 349 955 109
221 152 292 260 438 116 156 328 359 429 408 14 7 32 18 40 24 32 24 149 68
228 85 287 63 531 -41 633 -270 64 -142 74 -206 74 -463 l0 -228 25 -5 c14 -3
39 -10 57 -14 21 -5 35 -4 41 3 5 7 24 64 42 127 18 63 38 133 46 155 7 22 40
132 73 245 33 113 76 261 96 330 77 262 95 325 95 332 0 5 -31 8 -68 8 l-69 0
-32 -50 c-39 -60 -81 -94 -137 -110 -39 -12 -49 -10 -175 35 -191 67 -275 92
-371 108 -101 17 -353 18 -458 1z"/>
<path d="M4800 4900 c-249 -51 -485 -222 -644 -467 -36 -56 -66 -105 -66 -108
0 -4 -11 -30 -24 -60 -67 -145 -109 -343 -109 -515 -1 -157 37 -310 113 -463
39 -77 102 -174 137 -212 10 -11 52 -61 93 -110 41 -50 89 -106 106 -125 17
-19 71 -80 120 -135 49 -55 105 -117 124 -138 68 -75 122 -153 165 -242 113
-229 106 -404 -27 -683 -118 -245 -292 -363 -539 -364 -405 -2 -610 292 -613
881 -1 151 1 148 -86 147 l-44 -1 -47 -195 c-91 -377 -150 -626 -153 -640 -2
-8 -6 -26 -9 -40 -21 -81 -77 -320 -77 -329 0 -7 26 -11 69 -11 l69 0 31 63
c36 72 47 87 81 108 60 38 98 32 310 -51 172 -67 241 -87 365 -106 305 -47
626 29 860 203 298 222 461 563 471 983 7 325 -71 546 -302 855 -99 133 -140
179 -316 360 -144 148 -222 239 -262 308 -90 154 -72 451 41 653 29 51 154
184 174 184 6 0 23 8 37 18 111 74 351 72 474 -4 63 -39 86 -62 129 -128 83
-127 122 -301 134 -595 2 -68 6 -125 7 -126 2 -2 30 -5 63 -9 l60 -5 38 142
c80 299 205 765 241 900 15 53 20 49 -68 49 -46 0 -51 -2 -88 -46 -67 -78
-147 -107 -240 -86 -29 6 -133 38 -230 71 -276 93 -385 106 -568 69z"/>
</g>
</svg>
